<?xml version="1.0" encoding="utf-8"?>
<!-- Generator: Adobe Illustrator 25.0.1, SVG Export Plug-In . SVG Version: 6.00 Build 0)  -->
<svg version="1.1" id="Calque_1" xmlns="http://www.w3.org/2000/svg" xmlns:xlink="http://www.w3.org/1999/xlink" x="0px" y="0px"
	 viewBox="0 0 1366 768" style="enable-background:new 0 0 1366 768;" xml:space="preserve">
<g>
	<g>
		<path d="M382.67,591.96c0.01-0.22,0.01-0.44,0.02-0.67c0.42-1.89,1.13-3.62,2.03-5.37c2.58-5.02,9.1-8.84,8.55-13.73
			c0.09-0.64,0.07-1.29-0.1-1.96c-2.1-8.45-12.62-8.54-19.42-12.78c-5.81-3.63-9.28-9.61-9.51-16.39c0.06-2.04,0.42-4.16,1.06-6.28
			c1.49-4.97,4.5-9.44,5.02-14.46c-0.03-0.2-0.06-0.39-0.1-0.58c0.04-0.24,0.07-0.48,0.1-0.72c-0.47-2.79-0.93-5.58-1.4-8.38
			c-17.72-106.3-35.41-212.61-53.06-318.92c-36.43,4.17-72.9,7.47-109.51,9.72c-18.8,116.49-37.65,232.97-56.55,349.44
			c-0.46,0.95-1.18,2.03-2.49,3.55c-6.51,5.85-11.15,16.85-10.68,25.62c-0.13,7.64,2.46,15.26,8.43,20.93
			c6.87,6.54,19,8.64,28.12,8.63c-9.02,6.35-20.67,4.9-30.99,3.95c-1.26-0.16-2.7,0.4-2.87,1.78c-0.47,2.86-0.93,5.73-1.4,8.59
			c-5.12,31.47-10.24,62.94-15.36,94.4c25.01-0.11,49.98-0.79,74.96-1.98c4.55-31.42,9.1-62.84,13.65-94.26
			c0.06-0.41,0.14-0.82,0.23-1.24c0.14-0.01,0.22-0.01,0.36-0.02c0.51-1.59,1.3-3.2,2.51-4.83c26.25-1.7,52.96-3.45,78.56-6.84
			c3.89-0.51,7.91-0.49,11.87-1.3c0.16-0.02,0.3-0.12,0.44-0.25c-0.26,0.93-0.31,1.84-0.25,2.73c-0.06,0.79,0,1.56,0.09,2.33
			c0.07-0.01,0.1-0.01,0.17-0.02c4.54,31.05,9.08,62.09,13.63,93.14c27.01-3.31,53.94-7.02,80.84-11.09
			c-5.59-33.46-11.17-66.91-16.76-100.37C382.77,593.58,382.69,592.78,382.67,591.96z M258.55,287.3
			c10.83,75.51,21.67,151.02,32.53,226.52c-0.07,0.01-0.11,0.01-0.19,0.02c0.82,5.73,1.73,11.52,2.47,17.18
			c0.27,2.04,0.48,4.15,0.55,6.24c0,0.29,0.01,0.58,0,0.87c-2.36,0.28-4.64,0.52-6.88,0.74c-2.36,0.24-4.71,0.48-7.03,0.7
			c-2.42,0.23-4.85,0.48-7.28,0.71c-16.87,1.59-33.82,2.94-50.75,4.14c1.14-8.28,2.28-16.56,3.42-24.85c-0.07,0-0.11,0.01-0.18,0.01
			c10.63-77.38,21.25-154.77,31.86-232.16C257.66,287.38,257.96,287.35,258.55,287.3z"/>
		<path d="M519.44,566.63c0-2.39,0-4.79,0-7.18c1.57-5.58,5.92-9.82,9.47-14.63c1.57-2.13,2.23-4.45,2.05-6.49
			c0.2-2.46-0.77-4.81-2.77-6c-7.88-4.69-16.5-15.34-16.62-25.2c0.12-4.65,1.57-9.6,4.8-14.74c0.69-1.62,1.45-3.23,3.07-5.02
			c0-0.52,0-0.78,0-1.3c0,0,0,0,0,0c0-108.83,0-217.65,0-326.48c-26.91,5.04-53.85,9.88-80.84,14.45c0,105.75,0,211.5,0,317.24
			c0,0.7,0,1.39,0,2.09c0,0,0,0,0,0c0,2.6,0,3.9,0,6.5c-0.12,1.13-0.47,2.28-1.19,3.45c-4.68,7.63-9.39,16.3-9.11,24.22
			c-0.1,3.55,0.71,6.97,2.82,10.12c4.86,7.25,13.12,8.79,20.85,12.5c1.58,0.86,2.67,2.3,2.9,3.99c-0.08,0.6-0.25,1.24-0.56,1.85
			c-2.59,5.1-7.99,7.65-11.69,11.88c-1.26,1.44-2.16,2.88-2.93,4.59c-0.86,1.64-1.09,3.11-1.09,4.54c0,0.39,0,0.78,0,1.17
			c0,0.05,0,0.09,0,0.13c0,6.18,0,9.27,0,15.44c0,0,0,0,0,0c0,31.57,0,63.14,0,94.72c71.58-12.11,142.76-26.33,213.87-40.95
			c0-24.5,0-49,0-73.49c-44.29,9.1-88.6,18.06-133.02,26.5C519.44,589.24,519.44,577.94,519.44,566.63z"/>
		<path d="M940.6,469.71c-5.7-3.21-10.13-7.37-11.15-13.98c-0.1-0.63-0.14-1.27-0.16-1.9c0.2-5.01,2.48-9.86,5.73-14.26
			c0.72-1.19,1.26-2.36,1.62-3.68c0.72-3.18,1.8-6.05,3.1-9.04c1.08-2.75,1.48-5.36,1.4-8.06c0.01-0.48,0.02-0.97,0-1.46
			c-1.41-38.16-16.49-83.21-60.13-88.67c0-0.59,0-0.88,0-1.47c39.06-21.81,52.29-67.74,52.18-109.73c-0.02-8.21-0.02-12.37,0-20.58
			c0.18-71.79-50-111-119.79-96.53c-40.2,8.34-81.36,16.32-122,24.7c0,105.75,0,211.5,0,317.25c0,2.86,0,5.72-0.19,8.61
			c-3.57,7.1-6.22,15.12-6.05,22.28c-0.12,5.52,1.34,10.61,5.18,14.47c4.62,4.65,7.61,10.57,7.79,16.95
			c-0.15,4.66-1.8,9.54-5.42,14.36c-1.31,3.35-1.31,6.21-1.31,9.07c0,0.43,0,0.87,0,1.3c0,5.15,0,10.3,0,15.44
			c0,31.57,0,63.14,0,94.72c42.35-8.74,84.83-17.59,127.14-25.71c55.33-10.62,104.19-47.52,117.94-104.12
			c0.84-1.45,1.66-2.91,2.94-4.43c2.75-3.07,5.92-5.89,8.06-9.29c0.34-0.05,0.5-0.08,0.84-0.13c0.12-0.25,0.25-0.51,0.36-0.77
			c2.54-5.73,6.65-10.77,8.09-16.03c0.16-0.68,0.18-1.27,0.09-1.79C957.79,470.92,945.85,472.67,940.6,469.71z M772.25,182.01
			c12.98-2.6,26.1-5.09,38.95-7.74c29.18-6.01,41.67,19.84,41.16,45.02c-0.19,9.36,0,19.11,0,28.66
			c1.24,30.72-17.65,57.9-48.5,63.72c-10.46,1.97-21.07,4.18-31.6,6.29C772.25,272.65,772.25,227.33,772.25,182.01z M846.74,525.42
			c-7.29,8.15-17.65,12.99-28.19,14.89c-15.25,2.75-30.87,6.08-46.3,9.17c0-7.07,0-14.15,0-21.22c0,0,0,0,0,0
			c0-6.79,0-10.19,0-16.98c0.08-1.01,0.44-1.98,0.98-2.98c4.04-5.9,9.88-12.82,9.42-18.66c0.19-2.71-0.8-5.37-3.66-7.36
			c-7.25-5.03-14.24-15.72-14.19-24.97c0.12-5.28,1.71-10.89,5.22-16.62c1.43-2.99,2.24-5.8,2.24-8.43c0-1.77,0-2.65,0-4.42
			c0,0,0,0,0,0c0-12.13,0-24.26,0-36.39c12-2.41,24.13-4.71,36.01-7.16c22.56-4.66,43.78,2.91,49.57,26.89
			c-0.13,0.02-0.2,0.04-0.33,0.06c0.83,2.99,1.48,6.17,1.95,9.55c0.09,0.66,0.18,1.32,0.21,2c-0.1,1.68-0.62,3.45-2.15,5.4
			c-6.29,5.82-10.82,15.29-10.55,23.1c-0.17,5.41,1.8,10.18,6.81,12.7c8.8,4.43,15.96,8.92,22.83,15.38
			c0.74,0.7,1.15,1.57,1.28,2.47c-0.26,1.79-1.53,3.61-3.43,4.88c-4.3,2.88-9.77,5.95-11.51,10.56c-2.93,7.8-6.11,15.7-11.7,22.16
			C849.9,521.57,848.4,523.56,846.74,525.42z"/>
		<path d="M1244.06,564c-5.3-32.52-10.6-65.03-15.9-97.55c0.68-1.51,1.43-2.92,2.72-4.4c3.66-3.69,9.65-6.47,9.95-11.27
			c0.03-0.41,0.01-0.82-0.01-1.22c0-0.03,0.01-0.06,0.01-0.08c0.04-10.14-13.81-14.35-21.57-18.3c-7.28-3.7-10.5-10.52-10.68-17.51
			c0.17-6.74,2.94-13.83,7.14-19.49c-0.01-0.41-0.04-0.82-0.06-1.22c0.02-0.03,0.04-0.05,0.06-0.08c-0.04-2.93-0.51-5.78-0.97-8.63
			c-18.1-110.76-36.26-221.51-54.46-332.25c-36.6,2.24-73.07,5.55-109.51,9.72c-18.19,113.82-36.34,227.65-54.46,341.49
			c-0.23,1.46-0.55,2.92-1.38,4.39c-5.6,7.17-13.43,14.23-16.4,22.75c-0.6,1.71-0.76,3.47-0.67,5.08
			c-0.31,6.7,4.41,12.02,10.02,14.79c6.77,3.34,15.61,5.57,17.98,12.91c0.06,0.2,0.11,0.39,0.14,0.58c-0.5,2.74-4.12,4.66-6.62,6.2
			c-5.56,3.44-11.15,7.17-15.51,12.27c-0.59,2.92-1.06,5.85-1.53,8.78c-5.12,32.21-10.24,64.42-15.36,96.63
			c24.95-3.77,49.93-7.25,74.96-10.38c4.61-32.12,9.22-64.24,13.83-96.36c0.08-0.01,0.12-0.01,0.19-0.02
			c0.22-1.58,0.45-3.16,0.68-4.75c30.58-3.42,61.17-6.22,91.87-8.32c0-0.59,0-0.88,0-1.47c0.29,2.03,0.59,4.05,0.88,6.08
			c0.08,0,0.11-0.01,0.19-0.01c4.54,31.3,9.09,62.6,13.63,93.9C1190.17,564.92,1217.08,564.13,1244.06,564z M1102.96,145.93
			c10.85,75.67,21.7,151.34,32.53,227.02c-0.07,0.01-0.11,0.01-0.19,0.01c0.42,2.96,0.85,5.92,1.27,8.87
			c0.37,2.57,0.74,5.15,1.1,7.72c-0.47,2.92-2.12,5.56-3.67,8.22c-2.37-0.02-4.95,0.27-7.27,0.52c-14.76,1.58-30.06,2.05-44.64,3.66
			c-6.32,0.7-12.99,1.39-19.43,2.24c1.98-2.32,3.95-4.73,4.73-7.57c0.39-2.87,0.78-5.73,1.17-8.6c0.41-3.03,0.83-6.07,1.25-9.1
			c-0.07,0.01-0.11,0.01-0.18,0.02c10.61-77.62,21.23-155.24,31.86-232.86C1102.08,146.01,1102.37,145.98,1102.96,145.93z"/>
	</g>
</g>
</svg>
